<?xml version="1.0" standalone="no"?>
<!DOCTYPE svg PUBLIC "-//W3C//DTD SVG 20010904//EN"
 "http://www.w3.org/TR/2001/REC-SVG-20010904/DTD/svg10.dtd">
<svg version="1.0" xmlns="http://www.w3.org/2000/svg"
 width="595.000000pt" height="595.000000pt" viewBox="0 0 595.000000 595.000000"
 preserveAspectRatio="xMidYMid meet">
<metadata>
Created by potrace 1.14, written by Peter Selinger 2001-2017
</metadata>
<g transform="translate(0.000000,595.000000) scale(0.100000,-0.100000)"
fill="#000000" stroke="none">
<path d="M2895 5881 c-79 -20 -157 -87 -197 -168 -34 -70 -33 -198 1 -266 100
-194 363 -234 506 -75 138 153 92 400 -92 489 -50 24 -164 35 -218 20z"/>
<path d="M5545 5877 c-82 -27 -147 -85 -187 -165 -19 -38 -23 -63 -23 -132 0
-73 4 -92 28 -138 101 -192 364 -227 505 -67 58 66 80 127 78 216 -5 166 -125
288 -290 296 -41 1 -88 -3 -111 -10z"/>
<path d="M223 4571 c-132 -45 -213 -156 -214 -296 -1 -110 77 -232 178 -277
156 -69 346 2 414 154 31 71 32 183 2 249 -66 146 -232 220 -380 170z"/>
<path d="M1569 3276 c-152 -39 -254 -197 -224 -351 21 -110 79 -186 175 -229
156 -70 327 -9 406 144 24 47 28 66 27 135 0 95 -25 157 -88 220 -75 76 -191
107 -296 81z"/>
<path d="M5580 3280 c-95 -17 -181 -87 -225 -183 -31 -65 -30 -178 2 -248 59
-132 201 -203 348 -175 90 17 172 84 217 174 35 71 32 187 -5 265 -61 123
-200 192 -337 167z"/>
<path d="M260 1975 c-74 -16 -98 -27 -145 -68 -112 -96 -139 -272 -61 -395 85
-135 246 -183 399 -117 52 22 120 92 147 151 34 73 34 181 -1 254 -43 91 -121
156 -207 175 -57 12 -75 12 -132 0z"/>
<path d="M2878 664 c-221 -77 -280 -360 -108 -523 14 -13 50 -36 80 -50 74
-35 193 -36 258 -3 152 80 218 246 157 396 -48 119 -160 195 -283 194 -37 -1
-83 -7 -104 -14z"/>
<path d="M4193 658 c-62 -23 -132 -89 -164 -154 -33 -68 -34 -197 -1 -264 51
-105 152 -171 265 -176 88 -3 153 19 219 75 71 62 102 132 103 231 0 139 -78
250 -210 294 -61 21 -147 19 -212 -6z"/>
</g>
</svg>
